<svg width="20" height="20" viewBox="0 0 20 20" fill="none" xmlns="http://www.w3.org/2000/svg">
<g clip-path="url(#clip0_520_398)">
<path fill-rule="evenodd" clip-rule="evenodd" d="M15 1.25H5C4.00544 1.25 3.05161 1.64509 2.34835 2.34835C1.64509 3.05161 1.25 4.00544 1.25 5V15C1.25 15.9946 1.64509 16.9484 2.34835 17.6517C3.05161 18.3549 4.00544 18.75 5 18.75H15C15.9946 18.75 16.9484 18.3549 17.6517 17.6517C18.3549 16.9484 18.75 15.9946 18.75 15V5C18.75 4.00544 18.3549 3.05161 17.6517 2.34835C16.9484 1.64509 15.9946 1.25 15 1.25ZM5 0C3.67392 0 2.40215 0.526784 1.46447 1.46447C0.526784 2.40215 0 3.67392 0 5L0 15C0 16.3261 0.526784 17.5979 1.46447 18.5355C2.40215 19.4732 3.67392 20 5 20H15C16.3261 20 17.5979 19.4732 18.5355 18.5355C19.4732 17.5979 20 16.3261 20 15V5C20 3.67392 19.4732 2.40215 18.5355 1.46447C17.5979 0.526784 16.3261 0 15 0L5 0Z" fill="#006BB6"/>
<path fill-rule="evenodd" clip-rule="evenodd" d="M10.6709 15H6.32715V4.43127H10.5759C12.5596 4.43127 13.7546 5.44252 13.7546 7.06877C13.7546 8.17377 12.9421 9.16252 11.9009 9.33877V9.46377C13.3296 9.61002 14.2809 10.6275 14.2809 12.005C14.2809 13.865 12.9259 15 10.6709 15ZM7.9684 5.82252V8.90627H9.9159C11.3659 8.90627 12.1209 8.37127 12.1209 7.36877C12.1209 6.39377 11.4096 5.82252 10.1946 5.82252H7.9684ZM10.3409 13.6088H7.9684V10.2025H10.2459C11.7909 10.2025 12.6046 10.7813 12.6046 11.8875C12.6046 13.0075 11.8209 13.6088 10.3409 13.6088Z" fill="#006BB6"/>
</g>
<defs>
<clipPath id="clip0_520_398">
<rect width="20" height="20" fill="white"/>
</clipPath>
</defs>
</svg>
