<svg width="33" height="32" viewBox="0 0 33 32" fill="none" xmlns="http://www.w3.org/2000/svg">
<path d="M25.2694 26.1092C24.8174 26.5944 24.5694 27.2258 24.5743 27.8791C24.5792 28.5817 24.8699 29.2542 25.3835 29.7511C25.897 30.248 26.5921 30.5292 27.3183 30.534C28.0401 30.518 28.7261 30.2263 29.2264 29.7225C29.7266 29.2187 30.0004 28.5439 29.988 27.8454C29.9929 27.1921 29.7449 26.5607 29.2928 26.0754" stroke="#006BB6" stroke-miterlimit="10" stroke-linecap="round"/>
<path d="M9.69131 26.1091C9.23923 26.5944 8.99125 27.2258 8.99617 27.8791C8.99617 28.5832 9.28527 29.2585 9.79987 29.7564C10.3145 30.2542 11.0124 30.534 11.7402 30.534C12.4679 30.534 13.1659 30.2542 13.6805 29.7564C14.1951 29.2585 14.4842 28.5832 14.4842 27.8791C14.4891 27.2258 14.2411 26.5944 13.789 26.1091" stroke="#006BB6" stroke-miterlimit="10" stroke-linecap="round"/>
<path d="M11.6466 29.1343C12.1202 29.1343 12.5041 28.7629 12.5041 28.3046C12.5041 27.8464 12.1202 27.475 11.6466 27.475C11.173 27.475 10.7891 27.8464 10.7891 28.3046C10.7891 28.7629 11.173 29.1343 11.6466 29.1343Z" fill="#006BB6" stroke="#006BB6" stroke-miterlimit="10" stroke-linecap="round"/>
<path d="M27.2461 29.1891C27.751 29.1891 28.1602 28.7931 28.1602 28.3047C28.1602 27.8163 27.751 27.4203 27.2461 27.4203C26.7413 27.4203 26.332 27.8163 26.332 28.3047C26.332 28.7931 26.7413 29.1891 27.2461 29.1891Z" fill="#006BB6" stroke="#006BB6" stroke-miterlimit="10" stroke-linecap="round"/>
<path d="M11.7391 8.38219H8.95964C8.83917 8.38093 8.71964 8.40296 8.60808 8.44699C8.49652 8.49102 8.39517 8.55616 8.30998 8.63858C8.22478 8.72101 8.15746 8.81907 8.11195 8.92701C8.06644 9.03495 8.04367 9.15059 8.04497 9.26716V21.6511C8.04375 21.7677 8.06657 21.8833 8.11211 21.9912C8.15764 22.0991 8.22497 22.1971 8.31015 22.2795C8.39533 22.3619 8.49665 22.4271 8.60817 22.4711C8.7197 22.5152 8.83919 22.5373 8.95964 22.5361H30.902C31.0224 22.5373 31.1419 22.5152 31.2535 22.4711C31.365 22.4271 31.4663 22.3619 31.5515 22.2795C31.6367 22.1971 31.704 22.0991 31.7495 21.9912C31.7951 21.8833 31.8179 21.7677 31.8167 21.6511V9.2666C31.8179 9.15006 31.7951 9.03445 31.7495 8.92655C31.704 8.81864 31.6367 8.72061 31.5515 8.6382C31.4663 8.55579 31.365 8.49065 31.2535 8.44659C31.1419 8.40254 31.0224 8.38045 30.902 8.38164H28.1225" stroke="#006BB6" stroke-miterlimit="10" stroke-linecap="round"/>
<path d="M19.9317 17.2286C24.4762 17.2286 28.1603 13.6642 28.1603 9.26723C28.1603 4.87032 24.4762 1.30591 19.9317 1.30591C15.3872 1.30591 11.7031 4.87032 11.7031 9.26723C11.7031 13.6642 15.3872 17.2286 19.9317 17.2286Z" stroke="#006BB6" stroke-miterlimit="10" stroke-linecap="round"/>
<path d="M16.0684 8.75782L18.5014 11.1439C18.6629 11.287 18.874 11.3663 19.0931 11.3663C19.3121 11.3663 19.5232 11.287 19.6847 11.1439L23.7944 7.16711" stroke="#006BB6" stroke-miterlimit="10" stroke-linecap="round"/>
<path d="M1.02344 6.36572L4.42486 9.65612V25.2248C4.42356 25.3414 4.44633 25.457 4.49184 25.5649C4.53734 25.6729 4.60467 25.7709 4.68986 25.8534C4.77506 25.9358 4.87641 26.0009 4.98797 26.045C5.09953 26.089 5.21905 26.111 5.33953 26.1098L10.8544 25.8747H30.9028" stroke="#006BB6" stroke-miterlimit="10" stroke-linecap="round"/>
</svg>
