<svg width="32" height="24" viewBox="0 0 32 24" fill="none" xmlns="http://www.w3.org/2000/svg">
<path d="M30.7153 18.7356H29.2329C29.3505 18.4826 29.4117 18.2085 29.4123 17.9311V3.14985C29.4115 2.62202 29.1944 2.11601 28.8086 1.74282C28.4228 1.36964 27.8998 1.15974 27.3542 1.15918H4.64851C4.10295 1.15974 3.5799 1.36964 3.19408 1.74282C2.80827 2.11601 2.59118 2.62202 2.59045 3.14985V17.929C2.59104 18.2064 2.65218 18.4805 2.76985 18.7334H1.28739C1.12476 18.7334 0.96878 18.7959 0.85373 18.9071C0.73868 19.0183 0.673974 19.1692 0.673828 19.3265C0.675283 20.2157 1.041 21.068 1.69083 21.6968C2.34066 22.3255 3.2216 22.6793 4.1406 22.6807H27.8577C28.7771 22.6799 29.6587 22.3263 30.3091 21.6975C30.9595 21.0688 31.3256 20.2161 31.3272 19.3265C31.3265 19.1698 31.2618 19.0198 31.1471 18.9091C31.0325 18.7984 30.8773 18.736 30.7153 18.7356V18.7356Z" stroke="#006BB6" stroke-miterlimit="10"/>
<path d="M16.0003 14.5413C17.206 14.5425 18.3697 14.9693 19.2734 15.7414C20.177 16.5136 20.7585 17.5782 20.9088 18.7355H11.0918C11.2421 17.5782 11.8236 16.5136 12.7273 15.7414C13.6309 14.9693 14.7947 14.5425 16.0003 14.5413V14.5413Z" stroke="#006BB6" stroke-miterlimit="10"/>
<path d="M13.166 10.6126C13.1669 9.8856 13.4658 9.18866 13.9972 8.6747C14.5287 8.16075 15.2491 7.87178 16.0005 7.87122C16.7518 7.87192 17.4721 8.16095 18.0034 8.67489C18.5347 9.18883 18.8336 9.8857 18.8344 10.6126C18.8337 11.3396 18.5349 12.0367 18.0036 12.5508C17.4723 13.065 16.7519 13.3542 16.0005 13.355C15.249 13.3542 14.5286 13.065 13.9972 12.5508C13.4658 12.0367 13.1669 11.3397 13.166 10.6126V10.6126Z" stroke="#006BB6" stroke-miterlimit="10"/>
<path d="M2.76978 18.7334H29.06" stroke="#006BB6" stroke-miterlimit="10"/>
</svg>
