<svg width="24" height="24" viewBox="0 0 24 24" fill="none" xmlns="http://www.w3.org/2000/svg">
<g clip-path="url(#clip0_520_478)">
<path d="M0 0H1.5V24H0V0ZM1.5 22.5H24V24H1.5V22.5Z" fill="#006BB6"/>
<path fill-rule="evenodd" clip-rule="evenodd" d="M21.5848 6.46802L15.0613 14.625L10.4998 10.0605L5.03075 15.531L3.96875 14.469L10.4998 7.93952L14.9382 12.375L20.4133 5.53052L21.5848 6.46652V6.46802Z" fill="#006BB6"/>
<path fill-rule="evenodd" clip-rule="evenodd" d="M15 5.25C15 5.05109 15.079 4.86032 15.2197 4.71967C15.3603 4.57902 15.5511 4.5 15.75 4.5H21.75C21.9489 4.5 22.1397 4.57902 22.2803 4.71967C22.421 4.86032 22.5 5.05109 22.5 5.25V11.25C22.5 11.4489 22.421 11.6397 22.2803 11.7803C22.1397 11.921 21.9489 12 21.75 12C21.5511 12 21.3603 11.921 21.2197 11.7803C21.079 11.6397 21 11.4489 21 11.25V6H15.75C15.5511 6 15.3603 5.92098 15.2197 5.78033C15.079 5.63968 15 5.44891 15 5.25Z" fill="#006BB6"/>
</g>
<defs>
<clipPath id="clip0_520_478">
<rect width="24" height="24" fill="white"/>
</clipPath>
</defs>
</svg>
