<svg width="20" height="21" viewBox="0 0 20 21" fill="none" xmlns="http://www.w3.org/2000/svg">
<path fill-rule="evenodd" clip-rule="evenodd" d="M9.5575 1.93252C9.61556 1.87431 9.68453 1.82814 9.76046 1.79663C9.83639 1.76512 9.91779 1.7489 10 1.7489C10.0822 1.7489 10.1636 1.76512 10.2395 1.79663C10.3155 1.82814 10.3844 1.87431 10.4425 1.93252L17.9425 9.43252C18.0005 9.49067 18.0465 9.55968 18.0778 9.6356C18.1091 9.71153 18.1251 9.79289 18.125 9.87502V18.625C18.125 18.7908 18.0592 18.9498 17.9419 19.067C17.8247 19.1842 17.6658 19.25 17.5 19.25H11.875C11.7092 19.25 11.5503 19.1842 11.4331 19.067C11.3158 18.9498 11.25 18.7908 11.25 18.625V13.625H8.75V18.625C8.75 18.7908 8.68415 18.9498 8.56694 19.067C8.44973 19.1842 8.29076 19.25 8.125 19.25H2.5C2.33424 19.25 2.17527 19.1842 2.05806 19.067C1.94085 18.9498 1.875 18.7908 1.875 18.625V9.87502C1.87485 9.79289 1.8909 9.71153 1.92221 9.6356C1.95353 9.55968 1.9995 9.49067 2.0575 9.43252L9.5575 1.93252ZM3.125 10.1338V18H7.5V13C7.5 12.8343 7.56585 12.6753 7.68306 12.5581C7.80027 12.4409 7.95924 12.375 8.125 12.375H11.875C12.0408 12.375 12.1997 12.4409 12.3169 12.5581C12.4342 12.6753 12.5 12.8343 12.5 13V18H16.875V10.1338L10 3.25877L3.125 10.1338Z" fill="#006BB6"/>
<path fill-rule="evenodd" clip-rule="evenodd" d="M16.25 3.625V8L13.75 5.5V3.625C13.75 3.45924 13.8158 3.30027 13.9331 3.18306C14.0503 3.06585 14.2092 3 14.375 3H15.625C15.7908 3 15.9497 3.06585 16.0669 3.18306C16.1842 3.30027 16.25 3.45924 16.25 3.625Z" fill="#006BB6"/>
</svg>
