<svg width="33" height="32" viewBox="0 0 33 32" fill="none" xmlns="http://www.w3.org/2000/svg">
<path d="M30.3546 16.332H16.9865C16.2464 16.332 15.6465 16.9125 15.6465 17.6285V29.7928C15.6465 30.5088 16.2464 31.0893 16.9865 31.0893H30.3546C31.0947 31.0893 31.6946 30.5088 31.6946 29.7928V17.6285C31.6946 16.9125 31.0947 16.332 30.3546 16.332Z" stroke="#006BB6" stroke-miterlimit="10" stroke-linecap="round"/>
<path d="M16.1367 18.8835H31.6959" stroke="#006BB6" stroke-miterlimit="10" stroke-linecap="round"/>
<path d="M24.4766 22.9185H28.586" stroke="#006BB6" stroke-miterlimit="10" stroke-linecap="round"/>
<path d="M24.6816 26.6567H26.8941" stroke="#006BB6" stroke-miterlimit="10" stroke-linecap="round"/>
<path d="M22.6849 21.5624L19.9525 24.202L18.3477 22.6493" stroke="#006BB6" stroke-miterlimit="10" stroke-linecap="round"/>
<path d="M22.9637 25.3354L20.2318 27.9802L18.627 26.4275" stroke="#006BB6" stroke-miterlimit="10" stroke-linecap="round"/>
<path d="M29.9908 16.0623V13.212C29.9887 13.0593 29.9294 12.9125 29.824 12.7989C29.7185 12.6853 29.574 12.6125 29.4173 12.5941L26.5501 12.2411C26.4227 12.226 26.3028 12.1748 26.2054 12.0941C26.108 12.0133 26.0373 11.9066 26.0023 11.7872C25.7641 11.0181 25.4362 10.2777 25.0249 9.5803C24.9548 9.47739 24.9174 9.35681 24.9174 9.23353C24.9174 9.11025 24.9548 8.98968 25.0249 8.88677L26.8496 6.64209C26.9533 6.5291 27.0105 6.38326 27.0105 6.23218C27.0105 6.0811 26.9533 5.93526 26.8496 5.82227L24.7634 3.81723C24.6457 3.71358 24.4924 3.65613 24.3333 3.65613C24.1742 3.65613 24.0208 3.71358 23.9032 3.81723L21.6099 5.48171C21.5035 5.54958 21.3789 5.58576 21.2515 5.58576C21.1241 5.58576 20.9994 5.54958 20.8931 5.48171C20.1634 5.08682 19.3892 4.77424 18.5859 4.5501C18.462 4.51599 18.3514 4.44717 18.2679 4.3523C18.1844 4.25742 18.1318 4.14076 18.1167 4.01701L17.7519 1.24287C17.7188 1.10062 17.6358 0.973848 17.517 0.884115C17.3983 0.794382 17.251 0.747225 17.1004 0.750664H14.1807C14.0228 0.752683 13.8711 0.810028 13.7536 0.912059C13.6362 1.01409 13.561 1.15388 13.5419 1.30549L13.1771 4.08222C13.1613 4.2053 13.1084 4.32115 13.025 4.41531C12.9415 4.50947 12.8313 4.57777 12.708 4.61169C11.9135 4.8374 11.1483 5.14995 10.427 5.5433C10.3206 5.61117 10.196 5.64735 10.0686 5.64735C9.94117 5.64735 9.81655 5.61117 9.71018 5.5433L7.39015 3.77945C7.27337 3.67915 7.12263 3.62375 6.96648 3.62375C6.81032 3.62375 6.65959 3.67915 6.54281 3.77945L4.47045 5.79795C4.36385 5.9121 4.30483 6.06048 4.30483 6.21433C4.30483 6.36818 4.36385 6.51655 4.47045 6.63071L6.19082 8.85002C6.27926 8.95006 6.33311 9.07438 6.34481 9.20554C6.35652 9.3367 6.32549 9.46811 6.25608 9.58134C5.84793 10.2873 5.52485 11.0363 5.29319 11.8136C5.25809 11.933 5.18742 12.0397 5.08999 12.1204C4.99257 12.2011 4.87272 12.2523 4.74541 12.2675L1.87814 12.6205C1.72144 12.6389 1.57696 12.7116 1.4715 12.8253C1.36604 12.9389 1.30677 13.0857 1.30469 13.2384V16.0633C1.30677 16.216 1.36604 16.3628 1.4715 16.4765C1.57696 16.5901 1.72144 16.6629 1.87814 16.6813L4.74541 17.0343C4.87274 17.0494 4.99263 17.1005 5.09006 17.1813C5.1875 17.262 5.25816 17.3688 5.29319 17.4882C5.52866 18.2479 5.85165 18.9797 6.25608 19.6697C6.32623 19.7726 6.36362 19.8932 6.36362 20.0165C6.36362 20.1397 6.32623 20.2603 6.25608 20.3632L4.43141 22.6079C4.32774 22.7209 4.27049 22.8667 4.27049 23.0178C4.27049 23.1689 4.32774 23.3147 4.43141 23.4277L6.51767 25.4328C6.63529 25.5364 6.78866 25.5939 6.94775 25.5939C7.10685 25.5939 7.26022 25.5364 7.37785 25.4328L9.65882 23.7181C9.77838 23.662 9.90913 23.6318 10.042 23.6296C10.1748 23.6273 10.3066 23.6531 10.4281 23.7051C11.1576 24.0999 11.9316 24.4125 12.7347 24.6367C12.8582 24.6706 12.9686 24.739 13.0522 24.8332C13.1357 24.9275 13.1886 25.0435 13.2044 25.1667L13.5692 27.9409C13.6083 28.2545 14.951 28.4916 15.2778 28.4957" stroke="#006BB6" stroke-miterlimit="10" stroke-linecap="round"/>
<path d="M16.1367 8.20557C17.1112 8.20605 18.0717 8.42942 18.94 8.85745C19.8083 9.28548 20.5596 9.90604 21.1328 10.6685C21.706 11.431 22.0848 12.3138 22.2382 13.2448C22.3916 14.1759 22.3154 15.1289 22.0157 16.026" stroke="#006BB6" stroke-miterlimit="10" stroke-linecap="round"/>
<path d="M14.9326 17.5058C14.283 17.2919 13.7069 16.9089 13.2676 16.3989C12.8283 15.8889 12.5428 15.2716 12.4425 14.6148C12.3421 13.958 12.4309 13.2872 12.6989 12.6761C12.9669 12.0649 13.4039 11.537 13.9618 11.1505C14.5197 10.7639 15.1769 10.5337 15.8613 10.485C16.5456 10.4362 17.2306 10.571 17.8409 10.8744C18.4513 11.1778 18.9634 11.6381 19.321 12.2047C19.6786 12.7713 19.8678 13.4223 19.8679 14.0862" stroke="#006BB6" stroke-miterlimit="10" stroke-linecap="round"/>
<path d="M10.5762 9.80493L11.9617 11.1454" stroke="#006BB6" stroke-miterlimit="10" stroke-linecap="round"/>
<path d="M9.22656 11.9409L10.8619 12.5864" stroke="#006BB6" stroke-miterlimit="10" stroke-linecap="round"/>
<path d="M8.61328 14.5288L10.4941 14.6264" stroke="#006BB6" stroke-miterlimit="10" stroke-linecap="round"/>
<path d="M9.30859 17.0844L10.9032 16.332" stroke="#006BB6" stroke-miterlimit="10" stroke-linecap="round"/>
<path d="M10.6973 19.2597L12.0876 18.0439" stroke="#006BB6" stroke-miterlimit="10" stroke-linecap="round"/>
<path d="M13.0293 20.7627L13.8472 19.3783" stroke="#006BB6" stroke-miterlimit="10" stroke-linecap="round"/>
<path d="M16.4388 13.9914C16.4388 14.1286 16.3191 14.2678 16.1364 14.2678C15.9537 14.2678 15.834 14.1286 15.834 13.9914C15.834 13.8542 15.9537 13.7151 16.1364 13.7151C16.3191 13.7151 16.4388 13.8542 16.4388 13.9914Z" fill="black" stroke="#006BB6"/>
</svg>
