<svg width="32" height="31" viewBox="0 0 32 31" fill="none" xmlns="http://www.w3.org/2000/svg">
<path d="M7.33825 3.94861H4.34542C3.50413 3.97277 2.70394 4.31777 2.10882 4.91289C1.51369 5.50802 1.1687 6.30821 1.14453 7.1495V27.2991C1.14453 28.148 1.48177 28.9622 2.08205 29.5625C2.68233 30.1627 3.49649 30.5 4.34542 30.5H27.936C28.7849 30.5 29.599 30.1627 30.1993 29.5625C30.7996 28.9622 31.1369 28.148 31.1369 27.2991V7.21351C31.0962 6.3584 30.7307 5.55105 30.115 4.95621C29.4994 4.36137 28.6799 4.02389 27.8239 4.01263H7.33825V3.94861Z" stroke="#006BB6" stroke-miterlimit="10" stroke-linecap="round"/>
<path d="M1.08008 10.9745H31.2004" stroke="#006BB6" stroke-miterlimit="10" stroke-linecap="round"/>
<path d="M8.60352 1.33984V6.79736" stroke="#006BB6" stroke-miterlimit="10" stroke-linecap="round"/>
<path d="M23.6309 1.33984V6.79736" stroke="#006BB6" stroke-miterlimit="10" stroke-linecap="round"/>
<path d="M21.6172 26.2246L16.3582 20.9656" stroke="#006BB6" stroke-miterlimit="10" stroke-linecap="round"/>
<rect x="7.75398" y="18.8883" width="9.22956" height="9.22956" rx="4.61478" transform="rotate(-45 7.75398 18.8883)" fill="white" stroke="#006BB6"/>
</svg>
